<svg width="15" height="15" viewBox="0 0 15 15" fill="none" xmlns="http://www.w3.org/2000/svg">
<path d="M9.00162 7.04104C8.99302 7.1411 8.95302 7.23588 8.88735 7.31186L5.83865 10.8348C5.75591 10.9305 5.63852 10.9895 5.5123 10.9987C5.38608 11.0079 5.26137 10.9666 5.1656 10.8839C5.06983 10.8012 5.01086 10.6838 5.00164 10.5576C4.99243 10.4313 5.03373 10.3066 5.11647 10.2109L7.89435 6.9999L5.11647 3.79008C5.03358 3.69431 4.99213 3.56954 5.00124 3.44322C5.01034 3.31689 5.06926 3.19935 5.16503 3.11647C5.2608 3.03358 5.38557 2.99213 5.5119 3.00124C5.63822 3.01034 5.75576 3.06926 5.83865 3.16503L8.88735 6.68795C8.92904 6.73616 8.96064 6.79226 8.98027 6.85291C8.9999 6.91356 9.00716 6.97753 9.00162 7.04104Z" fill="#242B2E" stroke="#242B2E" stroke-width="0.5"/>
</svg>
