<svg width="14" height="14" viewBox="0 0 14 14" fill="none" xmlns="http://www.w3.org/2000/svg">
<path d="M7.42856 8.40183C7.33517 8.39381 7.24671 8.35648 7.1758 8.29518L3.88774 5.44973C3.79836 5.37251 3.74331 5.26294 3.73471 5.14514C3.72611 5.02733 3.76466 4.91094 3.84188 4.82155C3.9191 4.73217 4.02867 4.67712 4.14647 4.66852C4.26428 4.65992 4.38067 4.69847 4.47006 4.77569L7.46695 7.36838L10.4628 4.77569C10.5522 4.69833 10.6686 4.65965 10.7865 4.66815C10.9044 4.67665 11.0141 4.73164 11.0915 4.82102C11.1689 4.9104 11.2075 5.02686 11.199 5.14476C11.1905 5.26267 11.1355 5.37237 11.0462 5.44973L7.75811 8.29518C7.71311 8.3341 7.66075 8.36359 7.60415 8.38191C7.54754 8.40023 7.48783 8.407 7.42856 8.40183V8.40183Z" fill="#242B2E" stroke="#242B2E" stroke-width="0.5"/>
</svg>
