<svg xmlns="http://www.w3.org/2000/svg" xmlns:xlink="http://www.w3.org/1999/xlink" version="1.1" width="1000" height="1000" viewBox="0 0 1000 1000" xml:space="preserve">
<desc>Created with Fabric.js 3.5.0</desc>
<defs>
</defs>
<rect x="0" y="0" width="100%" height="100%" fill="#ffffff"/>
<g transform="matrix(33.67 0 0 33.67 499.9995 499.9995)" id="150346">
<circle style="stroke: none; stroke-width: 1; stroke-dasharray: none; stroke-linecap: butt; stroke-dashoffset: 0; stroke-linejoin: miter; stroke-miterlimit: 4; is-custom-font: none; font-file-url: none; fill: rgb(4,167,241); fill-rule: nonzero; opacity: 1;" vector-effect="non-scaling-stroke" cx="0" cy="0" r="13.5"/>
</g>
<g transform="matrix(17.7351 0 0 17.7351 343.3328 418.9048)" id="980870">
<path style="stroke: none; stroke-width: 1; stroke-dasharray: none; stroke-linecap: butt; stroke-dashoffset: 0; stroke-linejoin: miter; stroke-miterlimit: 4; is-custom-font: none; font-file-url: none; fill: rgb(255,255,255); fill-rule: nonzero; opacity: 1;" vector-effect="non-scaling-stroke" transform=" translate(-28, -8)" d="M 30.5 0 h -5 A 2.5 2.5 0 0 0 23 2.5 v 11 A 2.5 2.5 0 0 0 25.5 16 h 5 A 2.5 2.5 0 0 0 33 13.5 V 2.5 A 2.5 2.5 0 0 0 30.5 0 Z M 32 13.5 A 1.5 1.5 0 0 1 30.5 15 h -5 A 1.5 1.5 0 0 1 24 13.5 V 2.5 A 1.5 1.5 0 0 1 25.454 1 V 2.5 a 0.5 0.5 0 0 0 0.5 0.5 h 4.092 a 0.5 0.5 0 0 0 0.5 -0.5 V 1 A 1.5 1.5 0 0 1 32 2.5 Z m -3 0 a 0.5 0.5 0 0 1 -0.5 0.5 h -1 a 0.5 0.5 0 0 1 0 -1 h 1 A 0.5 0.5 0 0 1 29 13.5 Z" stroke-linecap="round"/>
</g>
<g transform="matrix(17.7351 0 0 17.7351 656.6672 585.5344)" id="452903">
<path style="stroke: none; stroke-width: 1; stroke-dasharray: none; stroke-linecap: butt; stroke-dashoffset: 0; stroke-linejoin: miter; stroke-miterlimit: 4; is-custom-font: none; font-file-url: none; fill: rgb(250,250,250); fill-rule: nonzero; opacity: 1;" vector-effect="non-scaling-stroke" transform=" translate(-28, -8)" d="M 30.5 0 h -5 A 2.5 2.5 0 0 0 23 2.5 v 11 A 2.5 2.5 0 0 0 25.5 16 h 5 A 2.5 2.5 0 0 0 33 13.5 V 2.5 A 2.5 2.5 0 0 0 30.5 0 Z M 32 13.5 A 1.5 1.5 0 0 1 30.5 15 h -5 A 1.5 1.5 0 0 1 24 13.5 V 2.5 A 1.5 1.5 0 0 1 25.454 1 V 2.5 a 0.5 0.5 0 0 0 0.5 0.5 h 4.092 a 0.5 0.5 0 0 0 0.5 -0.5 V 1 A 1.5 1.5 0 0 1 32 2.5 Z m -3 0 a 0.5 0.5 0 0 1 -0.5 0.5 h -1 a 0.5 0.5 0 0 1 0 -1 h 1 A 0.5 0.5 0 0 1 29 13.5 Z" stroke-linecap="round"/>
</g>
<g transform="matrix(0.2862 0.3351 -0.3351 0.2862 574.3169 347.9541)" id="360862">
<path style="stroke: none; stroke-width: 1; stroke-dasharray: none; stroke-linecap: butt; stroke-dashoffset: 0; stroke-linejoin: miter; stroke-miterlimit: 4; is-custom-font: none; font-file-url: none; fill: rgb(255,255,255); fill-rule: nonzero; opacity: 1;" vector-effect="non-scaling-stroke" transform=" translate(-256.0001, -255.9999)" d="M 505.63 210.53 L 284.923 84.807 c -8.752 -5.258 -19.894 1.047 -19.894 11.257 v 52.654 c -3.463 0.511 -6.924 1.028 -10.386 1.545 c -28.818 4.083 -57.729 11.476 -85.041 21.488 c -48.31 17.709 -93.336 46.682 -124.516 88.151 C 12.64 303.055 -2.837 358.279 0.428 412.027 c 0.003 0.055 0.007 0.11 0.01 0.167 c 0.618 9.756 8.924 17.236 18.692 16.882 c 0.206 -0.007 0.41 -0.015 0.614 -0.023 c 8.028 -0.29 14.941 -5.83 16.884 -13.626 c 0.035 -0.143 0.069 -0.274 0.099 -0.391 c 5.501 -21.106 14.507 -41.418 26.846 -59.42 c 21.002 -30.641 51.981 -51.928 87.972 -60.952 c 36.335 -9.111 73.532 -6.725 110.068 -0.4 c 2.229 0.386 3.417 0.591 3.417 0.591 v 52.654 c 0 10.21 11.142 16.515 19.894 11.256 l 220.708 -125.723 C 514.123 227.942 514.123 215.632 505.63 210.53 z" stroke-linecap="round"/>
</g>
<g transform="matrix(-0.2937 -0.3286 0.3286 -0.2937 425.1915 657.9927)" id="273324">
<path style="stroke: none; stroke-width: 1; stroke-dasharray: none; stroke-linecap: butt; stroke-dashoffset: 0; stroke-linejoin: miter; stroke-miterlimit: 4; is-custom-font: none; font-file-url: none; fill: rgb(255,255,255); fill-rule: nonzero; opacity: 1;" vector-effect="non-scaling-stroke" transform=" translate(-256.0001, -255.9999)" d="M 505.63 210.53 L 284.923 84.807 c -8.752 -5.258 -19.894 1.047 -19.894 11.257 v 52.654 c -3.463 0.511 -6.924 1.028 -10.386 1.545 c -28.818 4.083 -57.729 11.476 -85.041 21.488 c -48.31 17.709 -93.336 46.682 -124.516 88.151 C 12.64 303.055 -2.837 358.279 0.428 412.027 c 0.003 0.055 0.007 0.11 0.01 0.167 c 0.618 9.756 8.924 17.236 18.692 16.882 c 0.206 -0.007 0.41 -0.015 0.614 -0.023 c 8.028 -0.29 14.941 -5.83 16.884 -13.626 c 0.035 -0.143 0.069 -0.274 0.099 -0.391 c 5.501 -21.106 14.507 -41.418 26.846 -59.42 c 21.002 -30.641 51.981 -51.928 87.972 -60.952 c 36.335 -9.111 73.532 -6.725 110.068 -0.4 c 2.229 0.386 3.417 0.591 3.417 0.591 v 52.654 c 0 10.21 11.142 16.515 19.894 11.256 l 220.708 -125.723 C 514.123 227.942 514.123 215.632 505.63 210.53 z" stroke-linecap="round"/>
</g>
</svg>