<svg width="32" height="32" viewBox="0 0 32 32" fill="none" xmlns="http://www.w3.org/2000/svg">
<path d="M16.0821 11.9968C16.2822 12.014 16.4718 12.094 16.6237 12.2253L23.6695 18.3227C23.8611 18.4882 23.979 18.723 23.9975 18.9754C24.0159 19.2278 23.9333 19.4773 23.7678 19.6688C23.6023 19.8603 23.3676 19.9783 23.1151 19.9967C22.8627 20.0151 22.6133 19.9325 22.4217 19.7671L15.9998 14.2113L9.58016 19.7671C9.38863 19.9328 9.13909 20.0157 8.88643 19.9975C8.63378 19.9793 8.39871 19.8615 8.23293 19.6699C8.06716 19.4784 7.98426 19.2289 8.00247 18.9762C8.02069 18.7236 8.13853 18.4885 8.33006 18.3227L15.3759 12.2253C15.4723 12.1419 15.5845 12.0787 15.7058 12.0395C15.8271 12.0002 15.9551 11.9857 16.0821 11.9968V11.9968Z" fill="#242B2E" stroke="#242B2E" stroke-width="0.5"/>
</svg>
