<svg width="90" height="48" viewBox="0 0 90 48" fill="none" xmlns="http://www.w3.org/2000/svg">
<circle cx="45" cy="24" r="24" fill="#04A7F1"/>
<path d="M50.9997 23.1428H45.8569V18C45.8569 17.7726 45.7666 17.5546 45.6058 17.3939C45.4451 17.2331 45.227 17.1428 44.9997 17.1428C44.7724 17.1428 44.5544 17.2331 44.3936 17.3939C44.2329 17.5546 44.1426 17.7726 44.1426 18V23.1428H38.9997C38.7724 23.1428 38.5544 23.2331 38.3936 23.3939C38.2329 23.5546 38.1426 23.7726 38.1426 24C38.1426 24.2273 38.2329 24.4453 38.3936 24.6061C38.5544 24.7668 38.7724 24.8571 38.9997 24.8571H44.1426V30C44.1426 30.2273 44.2329 30.4453 44.3936 30.6061C44.5544 30.7668 44.7724 30.8571 44.9997 30.8571C45.227 30.8571 45.4451 30.7668 45.6058 30.6061C45.7666 30.4453 45.8569 30.2273 45.8569 30V24.8571H50.9997C51.227 24.8571 51.4451 24.7668 51.6058 24.6061C51.7666 24.4453 51.8569 24.2273 51.8569 24C51.8569 23.7726 51.7666 23.5546 51.6058 23.3939C51.4451 23.2331 51.227 23.1428 50.9997 23.1428Z" fill="white"/>
</svg>
