<svg width="25" height="24" viewBox="0 0 25 24" fill="none" xmlns="http://www.w3.org/2000/svg">
<path d="M11.9401 2C9.37644 2.00731 6.91355 2.99891 5.06006 4.77V3C5.06006 2.73478 4.9547 2.48043 4.76717 2.29289C4.57963 2.10536 4.32528 2 4.06006 2C3.79484 2 3.54049 2.10536 3.35295 2.29289C3.16542 2.48043 3.06006 2.73478 3.06006 3V7.5C3.06006 7.76522 3.16542 8.01957 3.35295 8.20711C3.54049 8.39464 3.79484 8.5 4.06006 8.5H8.56006C8.82528 8.5 9.07963 8.39464 9.26717 8.20711C9.4547 8.01957 9.56006 7.76522 9.56006 7.5C9.56006 7.23478 9.4547 6.98043 9.26717 6.79289C9.07963 6.60536 8.82528 6.5 8.56006 6.5H6.16006C7.07177 5.53701 8.20856 4.81576 9.46819 4.40114C10.7278 3.98651 12.0707 3.89152 13.3762 4.1247C14.6816 4.35788 15.9086 4.91193 16.9468 5.73699C17.985 6.56205 18.8018 7.63226 19.3238 8.85133C19.8457 10.0704 20.0564 11.4001 19.9369 12.7208C19.8175 14.0415 19.3716 15.3118 18.6393 16.4174C17.9071 17.5231 16.9115 18.4293 15.7421 19.0547C14.5727 19.68 13.2662 20.0049 11.9401 20C11.6748 20 11.4205 20.1054 11.233 20.2929C11.0454 20.4804 10.9401 20.7348 10.9401 21C10.9401 21.2652 11.0454 21.5196 11.233 21.7071C11.4205 21.8946 11.6748 22 11.9401 22C14.5922 22 17.1358 20.9464 19.0111 19.0711C20.8865 17.1957 21.9401 14.6522 21.9401 12C21.9401 9.34784 20.8865 6.8043 19.0111 4.92893C17.1358 3.05357 14.5922 2 11.9401 2ZM11.9401 8C11.6748 8 11.4205 8.10536 11.233 8.29289C11.0454 8.48043 10.9401 8.73478 10.9401 9V12C10.9401 12.2652 11.0454 12.5196 11.233 12.7071C11.4205 12.8946 11.6748 13 11.9401 13H13.9401C14.2053 13 14.4596 12.8946 14.6472 12.7071C14.8347 12.5196 14.9401 12.2652 14.9401 12C14.9401 11.7348 14.8347 11.4804 14.6472 11.2929C14.4596 11.1054 14.2053 11 13.9401 11H12.9401V9C12.9401 8.73478 12.8347 8.48043 12.6472 8.29289C12.4596 8.10536 12.2053 8 11.9401 8Z" fill="#04A7F1"/>
</svg>
