<svg width="21" height="22" viewBox="0 0 21 22" fill="none" xmlns="http://www.w3.org/2000/svg">
<path d="M16.5002 10.1426H11.3574V4.99972C11.3574 4.77239 11.267 4.55438 11.1063 4.39363C10.9456 4.23288 10.7275 4.14258 10.5002 4.14258C10.2729 4.14258 10.0549 4.23288 9.89412 4.39363C9.73337 4.55438 9.64307 4.77239 9.64307 4.99972V10.1426H4.50021C4.27288 10.1426 4.05486 10.2329 3.89412 10.3936C3.73337 10.5544 3.64307 10.7724 3.64307 10.9997C3.64307 11.227 3.73337 11.4451 3.89412 11.6058C4.05486 11.7666 4.27288 11.8569 4.50021 11.8569H9.64307V16.9997C9.64307 17.227 9.73337 17.4451 9.89412 17.6058C10.0549 17.7666 10.2729 17.8569 10.5002 17.8569C10.7275 17.8569 10.9456 17.7666 11.1063 17.6058C11.267 17.4451 11.3574 17.227 11.3574 16.9997V11.8569H16.5002C16.7275 11.8569 16.9456 11.7666 17.1063 11.6058C17.267 11.4451 17.3574 11.227 17.3574 10.9997C17.3574 10.7724 17.267 10.5544 17.1063 10.3936C16.9456 10.2329 16.7275 10.1426 16.5002 10.1426Z" fill="white"/>
</svg>
