<svg width="16" height="15" viewBox="0 0 16 15" fill="none" xmlns="http://www.w3.org/2000/svg">
<path d="M15.5659 13.9417L11.652 10.2141C12.7186 8.97176 13.243 7.38649 13.1168 5.78623C12.9905 4.18596 12.2233 2.69312 10.9737 1.6165C9.72418 0.539881 8.08794 -0.0381557 6.40345 0.00195626C4.71896 0.0420682 3.1151 0.697259 1.92361 1.83201C0.732123 2.96676 0.0441716 4.49424 0.00205408 6.09852C-0.0400635 7.7028 0.566875 9.26112 1.69733 10.4512C2.82778 11.6412 4.39526 12.3719 6.07554 12.4921C7.75582 12.6124 9.42035 12.1129 10.7248 11.0971L14.6388 14.8247C14.7624 14.9385 14.9281 15.0014 15.1 15C15.2719 14.9986 15.4364 14.9329 15.558 14.8171C15.6795 14.7013 15.7485 14.5447 15.75 14.3809C15.7515 14.2172 15.6854 14.0595 15.5659 13.9417ZM6.5781 11.2608C5.5406 11.2608 4.5264 10.9677 3.66375 10.4188C2.8011 9.86984 2.12875 9.08958 1.73172 8.1767C1.33468 7.26382 1.2308 6.25932 1.43321 5.29021C1.63561 4.3211 2.13522 3.43091 2.86884 2.73223C3.60246 2.03354 4.53715 1.55772 5.55472 1.36496C6.57228 1.17219 7.62702 1.27112 8.58554 1.64925C9.54407 2.02738 10.3633 2.66772 10.9397 3.48929C11.5161 4.31086 11.8238 5.27676 11.8238 6.26486C11.8222 7.58939 11.2691 8.85926 10.2856 9.79585C9.30222 10.7324 7.96887 11.2593 6.5781 11.2608Z" fill="#242B2E"/>
</svg>
