<svg width="90" height="19" viewBox="0 0 90 19" fill="none" xmlns="http://www.w3.org/2000/svg">
<path d="M15.9773 12.2159V2.4013L11.4888 7.01851V16.8027L15.9773 12.2159Z" fill="#03A9F4"/>
<path d="M11.4885 2.40134L7 7.01855H11.4885V2.40134Z" fill="#37474F"/>
<path d="M15.9773 2.40134L11.4888 7.01855H18.4609L22.9494 2.40134H15.9773Z" fill="#03A9F4"/>
<path d="M15.9773 7.46343L11.4888 12.0503V7.01866H15.9773V7.46343Z" fill="#1976D2"/>
<path d="M29.098 6.03929H23.2739V7.33679H25.3745V13.0952H26.9775V7.33679H29.098" fill="#455A64"/>
<path d="M35.0075 10.1901V8.93415H31.6507V7.30576H35.3692V6.04968H30.0479V13.0952H35.4799V11.8392H31.6507V10.1901" fill="#455A64"/>
<path d="M36.3599 9.55209C36.3599 11.6193 37.9098 13.1782 39.9652 13.1782C40.9326 13.1782 41.9877 12.7091 42.7403 11.9489L41.8224 10.9503C41.3145 11.4497 40.6457 11.7567 40.0557 11.7567C38.8855 11.7567 38.0031 10.8001 38.0031 9.53139C38.0031 8.2804 38.8855 7.33701 40.0557 7.33701C40.6784 7.33701 41.3467 7.67513 41.8241 8.2258L42.7336 7.11759C42.0391 6.41905 41.0097 5.98802 40.0257 5.98802C37.9358 5.98802 36.3599 7.52028 36.3599 9.55209Z" fill="#455A64"/>
<path d="M50.0836 13.0952V6.04974H48.4806V9.02714H45.3802V6.04974H43.7773V13.0952H45.3802V10.2831H48.4806V13.0952" fill="#455A64"/>
<path d="M56.0409 6.64401L55.7049 7.40675C55.0819 6.97949 54.3503 6.80667 53.7967 6.80667C52.9068 6.80667 52.3235 7.1525 52.3235 7.7524C52.3235 9.58309 56.2188 8.62718 56.2091 11.2104C56.2091 12.4003 55.1906 13.1631 53.7077 13.1631C52.6994 13.1631 51.7106 12.7156 51.0581 12.0748L51.4141 11.3426C52.0566 11.9834 52.9366 12.3494 53.7177 12.3494C54.7161 12.3494 55.3391 11.9327 55.3391 11.251C55.3489 9.37969 51.4535 10.3765 51.4535 7.82366C51.4535 6.70501 52.4127 5.98293 53.846 5.98293C54.6469 5.98293 55.4675 6.24734 56.0409 6.64401Z" fill="#263238"/>
<path d="M58.622 10.1015H60.4019C61.6475 10.1015 62.3693 9.53201 62.3693 8.4235C62.3693 7.34535 61.6475 6.79628 60.4019 6.79628H58.622V10.1015ZM60.4314 6.01311C62.142 6.01311 63.1304 6.88778 63.1304 8.4031C63.1304 9.97938 62.142 10.8845 60.4314 10.8845H58.622V13.1323H57.8311V6.01311" fill="#263238"/>
<path d="M65.2368 6.79628V9.13533H68.7268V9.91842H65.2368V12.3593H69.2706V13.1323H64.4458V6.01311H69.142V6.79628" fill="#263238"/>
<path d="M76.3697 7.03L75.8951 7.65041C75.3612 7.09099 74.6098 6.75551 73.8486 6.75551C72.2864 6.75551 71.0308 7.99625 71.0308 9.56245C71.0308 11.1186 72.2864 12.3694 73.8486 12.3694C74.6098 12.3694 75.3514 12.044 75.8951 11.5152L76.3796 12.0744C75.6974 12.7356 74.768 13.1729 73.8089 13.1729C71.8119 13.1729 70.23 11.5761 70.23 9.56245C70.23 7.56908 71.8315 5.99258 73.8387 5.99258C74.7879 5.99258 75.7072 6.38944 76.3697 7.03Z" fill="#263238"/>
<path d="M82.0547 6.64401L81.7187 7.40675C81.0957 6.97949 80.3641 6.80667 79.8105 6.80667C78.9206 6.80667 78.3373 7.1525 78.3373 7.7524C78.3373 9.58309 82.2326 8.62718 82.2229 11.2104C82.2229 12.4003 81.2043 13.1631 79.7215 13.1631C78.713 13.1631 77.7242 12.7156 77.0718 12.0748L77.4277 11.3426C78.0704 11.9834 78.9503 12.3494 79.7313 12.3494C80.7298 12.3494 81.3528 11.9327 81.3528 11.251C81.3626 9.37969 77.4673 10.3765 77.4673 7.82366C77.4673 6.70501 78.4264 5.98293 79.8598 5.98293C80.6607 5.98293 81.4813 6.24734 82.0547 6.64401Z" fill="#263238"/>
</svg>
